<svg width="23" height="23" fill="currentColor" stroke="currentColor" viewBox="0 0 23 23"  xmlns="http://www.w3.org/2000/svg">
<g clip-path="url(#clip0)">
<path d="M21.5625 5.75H1.4375C0.644958 5.75 0 5.10504 0 4.3125V1.4375C0 0.644958 0.644958 0 1.4375 0H21.5625C22.355 0 23 0.644958 23 1.4375V4.3125C23 5.10504 22.355 5.75 21.5625 5.75ZM1.4375 0.958333C1.173 0.958333 0.958333 1.173 0.958333 1.4375V4.3125C0.958333 4.577 1.173 4.79167 1.4375 4.79167H21.5625C21.827 4.79167 22.0417 4.577 22.0417 4.3125V1.4375C22.0417 1.173 21.827 0.958333 21.5625 0.958333H1.4375Z" />
<path d="M9.10417 23H1.4375C0.644958 23 0 22.355 0 21.5625V9.10413C0 8.31158 0.644958 7.66663 1.4375 7.66663H9.10417C9.89671 7.66663 10.5417 8.31158 10.5417 9.10413V21.5625C10.5417 22.355 9.89671 23 9.10417 23ZM1.4375 8.62496C1.173 8.62496 0.958333 8.83963 0.958333 9.10413V21.5625C0.958333 21.827 1.173 22.0416 1.4375 22.0416H9.10417C9.36867 22.0416 9.58333 21.827 9.58333 21.5625V9.10413C9.58333 8.83963 9.36867 8.62496 9.10417 8.62496H1.4375Z" />
<path d="M21.5627 14.375H13.896C13.1035 14.375 12.4585 13.73 12.4585 12.9375V9.10413C12.4585 8.31158 13.1035 7.66663 13.896 7.66663H21.5627C22.3552 7.66663 23.0002 8.31158 23.0002 9.10413V12.9375C23.0002 13.73 22.3552 14.375 21.5627 14.375ZM13.896 8.62496C13.6315 8.62496 13.4168 8.83963 13.4168 9.10413V12.9375C13.4168 13.202 13.6315 13.4166 13.896 13.4166H21.5627C21.8272 13.4166 22.0418 13.202 22.0418 12.9375V9.10413C22.0418 8.83963 21.8272 8.62496 21.5627 8.62496H13.896Z" />
<path d="M21.5627 23H13.896C13.1035 23 12.4585 22.355 12.4585 21.5625V17.7291C12.4585 16.9366 13.1035 16.2916 13.896 16.2916H21.5627C22.3552 16.2916 23.0002 16.9366 23.0002 17.7291V21.5625C23.0002 22.355 22.3552 23 21.5627 23ZM13.896 17.25C13.6315 17.25 13.4168 17.4646 13.4168 17.7291V21.5625C13.4168 21.827 13.6315 22.0416 13.896 22.0416H21.5627C21.8272 22.0416 22.0418 21.827 22.0418 21.5625V17.7291C22.0418 17.4646 21.8272 17.25 21.5627 17.25H13.896Z" />
</g>
<defs>
<clipPath id="clip0">
<rect width="23" height="23" fill="white"/>
</clipPath>
</defs>
</svg>
