<svg width="23" height="23" viewBox="0 0 23 23" fill="currentColor" stroke="currentColor" xmlns="http://www.w3.org/2000/svg">
<path d="M22.4092 2.06107C21.8524 1.32289 21.0028 0.899557 20.0781 0.899557H19.6867V0.674953C19.6867 0.302831 19.385 0.00114355 19.0129 0.00114355C18.6408 0.00114355 18.3391 0.302831 18.3391 0.674953V2.47178C18.3391 2.8439 18.6408 3.14559 19.0129 3.14559C19.385 3.14559 19.6867 2.8439 19.6867 2.47178V2.24718H20.0781C20.576 2.24718 21.0335 2.47515 21.3333 2.87261C21.6331 3.27006 21.7266 3.77259 21.5898 4.25131L19.8015 10.5106C19.3024 12.2574 17.6851 13.4773 15.8684 13.4773C14.0518 13.4773 12.4345 12.2573 11.9354 10.5106L10.1471 4.25127C10.0103 3.77255 10.1038 3.27002 10.4036 2.87256C10.7034 2.47506 11.1609 2.24713 11.6588 2.24713H12.0502V2.47173C12.0502 2.84386 12.3519 3.14554 12.724 3.14554C13.0961 3.14554 13.3978 2.84386 13.3978 2.47173V0.674908C13.3978 0.302786 13.0961 0.00109863 12.724 0.00109863C12.3519 0.00109863 12.0502 0.302786 12.0502 0.674908V0.899512H11.6588C10.7342 0.899512 9.88452 1.32289 9.32773 2.06102C8.77089 2.79921 8.59727 3.73243 8.8513 4.62146L10.6397 10.8808C10.967 12.0263 11.6427 13.0109 12.5937 13.7283C12.7976 13.8821 13.0102 14.0193 13.2295 14.1416L15.1947 18.78V19.2663C15.1947 20.5823 14.1241 21.6529 12.8081 21.6529C11.4922 21.6529 10.4216 20.5823 10.4216 19.2663V14.6452C10.4216 12.5151 8.68855 10.7821 6.55841 10.7821C4.42828 10.7821 2.69524 12.5151 2.69524 14.6452V16.2403C1.15931 16.5533 0 17.9146 0 19.5416C0 21.3993 1.51135 22.9106 3.36905 22.9106C5.22674 22.9106 6.7381 21.3993 6.7381 19.5416C6.7381 17.9146 5.57878 16.5534 4.04286 16.2403V14.6452C4.04286 13.2582 5.17135 12.1297 6.55841 12.1297C7.94547 12.1297 9.07397 13.2582 9.07397 14.6452V19.2663C9.07397 21.3253 10.7491 23.0005 12.8081 23.0005C14.8672 23.0005 16.5423 21.3253 16.5423 19.2663V18.78L18.5075 14.1416C18.7268 14.0193 18.9394 13.8821 19.1432 13.7283C20.0943 13.0109 20.77 12.0263 21.0973 10.8808L22.8857 4.62146C23.1397 3.73248 22.966 2.79921 22.4092 2.06107ZM5.39048 19.5416C5.39048 20.6562 4.48366 21.563 3.36905 21.563C2.25443 21.563 1.34762 20.6562 1.34762 19.5416C1.34762 18.427 2.25443 17.5202 3.36905 17.5202C4.48366 17.5202 5.39048 18.427 5.39048 19.5416ZM15.8685 16.9159L14.9498 14.7475C15.2506 14.7985 15.5575 14.8249 15.8685 14.8249C16.1796 14.8249 16.4864 14.7985 16.7872 14.7475L15.8685 16.9159Z" />
<path d="M3.36914 20.2147C3.74129 20.2147 4.04297 19.913 4.04297 19.5409C4.04297 19.1687 3.74129 18.8671 3.36914 18.8671C2.997 18.8671 2.69531 19.1687 2.69531 19.5409C2.69531 19.913 2.997 20.2147 3.36914 20.2147Z" />
</svg>
